<svg xmlns="http://www.w3.org/2000/svg" xmlns:xlink="http://www.w3.org/1999/xlink" version="1.1" id="Layer_1" x="0px" y="0px" width="100px" height="100px" viewBox="5.0 -10.0 100.0 135.0" enable-background="new 0 0 100 100" xml:space="preserve">
<g>
	<path d="M67.286,16.87c0.132,0.188,0.069,0.438-0.136,0.556l0,0c-0.207,0.121-0.481,0.066-0.612-0.122l-1.528-2.177   c-0.131-0.188-0.069-0.438,0.136-0.558l0,0c0.207-0.12,0.481-0.064,0.613,0.124L67.286,16.87z"/>
	<path d="M64.617,19.202c0.207,0.102,0.271,0.35,0.147,0.553l0,0c-0.123,0.204-0.391,0.288-0.596,0.186l-2.385-1.18   c-0.205-0.101-0.271-0.351-0.146-0.554l0,0c0.123-0.204,0.391-0.287,0.596-0.185L64.617,19.202z"/>
	<path d="M64.002,22.259c0.229-0.035,0.424,0.131,0.439,0.37l0,0c0.018,0.237-0.154,0.459-0.381,0.493l-2.629,0.406   c-0.228,0.035-0.424-0.131-0.438-0.37l0,0c-0.017-0.237,0.154-0.459,0.38-0.494L64.002,22.259z"/>
</g>
<g>
	<path d="M33.119,16.87c-0.131,0.188-0.069,0.438,0.136,0.556l0,0c0.207,0.121,0.481,0.066,0.613-0.122l1.528-2.177   c0.131-0.188,0.069-0.438-0.136-0.558l0,0c-0.207-0.12-0.481-0.064-0.612,0.124L33.119,16.87z"/>
	<path d="M35.788,19.202c-0.207,0.102-0.271,0.35-0.147,0.553l0,0c0.124,0.204,0.391,0.288,0.597,0.186l2.383-1.18   c0.206-0.101,0.271-0.351,0.146-0.554l0,0c-0.124-0.204-0.391-0.287-0.597-0.185L35.788,19.202z"/>
	<path d="M36.403,22.259c-0.228-0.035-0.423,0.131-0.438,0.37l0,0c-0.018,0.237,0.154,0.459,0.381,0.493l2.628,0.406   c0.227,0.035,0.424-0.131,0.439-0.37l0,0c0.016-0.237-0.155-0.459-0.381-0.494L36.403,22.259z"/>
</g>
<path d="M28.918,75.824V60.717v-0.609c2.469-0.186,4.294-0.826,4.294-1.594c0-0.912-2.571-1.65-5.743-1.65  c-3.171,0-5.742,0.738-5.742,1.65c0,0.762,1.801,1.402,4.246,1.59v0.613v15.111c-3.26,0.156-5.706,0.814-5.706,1.6  c0,0.902,3.224,1.635,7.202,1.635c3.978,0,7.202-0.732,7.202-1.635C34.67,76.639,32.201,75.979,28.918,75.824z"/>
<path d="M39.43,57.311c-0.316-3.117-2.351-5.945-6.099-5.945l-11.805-0.004c-3.469,0-5.729,2.586-6.029,5.949H15.48v0.055h-0.018  L15.46,76.518c0,1.438,1.323,2.607,2.952,2.607c1.633,0,2.954-1.17,2.954-2.607l0.002-18.584h0.009  c0.093-1.012,2.782-1.824,6.095-1.824c3.312,0,6.001,0.812,6.093,1.824h0.01l-0.007,18.584c0,1.438,1.322,2.607,2.953,2.607  c1.63,0,2.951-1.17,2.951-2.607l0.006-18.584h0.001v-0.623H39.43z"/>
<path d="M74.137,75.824V60.717v-0.609c2.469-0.186,4.294-0.826,4.294-1.594c0-0.912-2.571-1.65-5.743-1.65  c-3.171,0-5.742,0.738-5.742,1.65c0,0.762,1.801,1.402,4.246,1.59v0.613v15.111c-3.26,0.156-5.705,0.814-5.705,1.6  c0,0.902,3.224,1.635,7.201,1.635s7.202-0.732,7.202-1.635C79.888,76.639,77.419,75.979,74.137,75.824z"/>
<path d="M85,48v-9.644c0-3.794-2.332-6.835-6.062-6.835l-11.798,0.005c-4.092,0-6.141,3.429-6.141,6.926V48H40v-9.548  c0-3.497-2.159-6.926-6.252-6.926l-11.744-0.005c-3.729,0-6.004,3.041-6.004,6.835V48H0v5h100v-5H85z M81,39v9h-1.463l-0.002-9H81z   M65,39h1.408l0.002,9H65V39z M36,39v9h-1.627l0.002-9H36z M20,39h1v9h-1V39z"/>
<path d="M84.647,57.311c-0.316-3.117-2.35-5.945-6.099-5.945l-11.805-0.004c-3.468,0-5.729,2.586-6.028,5.949h-0.017v0.055h-0.018  l-0.003,19.152c0,1.438,1.322,2.607,2.951,2.607c1.633,0,2.954-1.17,2.954-2.607l0.003-18.584h0.009  c0.092-1.012,2.781-1.824,6.094-1.824s6.002,0.812,6.094,1.824h0.01l-0.007,18.584c0,1.438,1.321,2.607,2.953,2.607  c1.63,0,2.951-1.17,2.951-2.607l0.006-18.584l0,0v-0.623H84.647z"/>
<path d="M59.457,41.906c-0.516-0.292-0.66-0.315-1.615-0.102V41.13c0-0.042-0.039-0.076-0.087-0.076h-1.66v0.003H55.11h-1.013h-0.96  v-0.003h-1.365h-0.168h-0.176c-0.048,0-0.087,0.034-0.087,0.076v5.255c0,0.788,0.728,1.427,1.625,1.427h3.129h0.121  c0.897,0,1.625-0.639,1.625-1.427v-0.212c0.483-0.236,1.194-0.677,1.698-1.403C60.375,43.568,60.103,42.271,59.457,41.906z   M59.396,43.535c-0.203,0.729-0.638,1.41-1.256,1.738c-0.096,0.052-0.195,0.094-0.299,0.127v-2.496  c0.075-0.17,0.313-0.622,0.728-0.668c0.216-0.024,0.442,0.037,0.614,0.185C59.418,42.625,59.548,42.993,59.396,43.535z"/>
<path d="M40.851,44.77c0.505,0.727,1.215,1.167,1.699,1.403v0.212c0,0.788,0.728,1.427,1.625,1.427h0.122h3.128  c0.897,0,1.625-0.639,1.625-1.427V41.13c0-0.042-0.039-0.076-0.087-0.076h-0.176h-0.169h-1.365v0.003h-0.96h-1.013h-0.984v-0.003  h-1.66c-0.048,0-0.087,0.034-0.087,0.076v0.673c-0.955-0.213-1.099-0.189-1.616,0.102C40.289,42.271,40.016,43.568,40.851,44.77z   M41.208,42.422c0.171-0.148,0.397-0.209,0.613-0.185c0.415,0.046,0.653,0.498,0.728,0.668V45.4  c-0.104-0.033-0.203-0.075-0.298-0.127c-0.618-0.328-1.054-1.009-1.257-1.738C40.843,42.993,40.973,42.625,41.208,42.422z"/>
<g>
	<path d="M33.658,26.314c-0.172-0.246-0.445-0.525-0.642-0.829c0.007-0.109,0.033-0.213,0.033-0.324   c0-2.909-2.358-5.267-5.267-5.267c-2.909,0-5.267,2.358-5.267,5.267c0,2.908,2.357,5.268,5.267,5.268   c2.227,0,4.121-1.388,4.892-3.341l0,0c0.266-0.303,0.38-0.11,0.835-0.204C33.874,26.806,33.961,26.745,33.658,26.314z"/>
	<polygon fill="#000000" points="29.882,27.093 30.234,28.584 31.775,28.22  "/>
</g>
<g>
	<path d="M72.844,19.894c-2.908,0-5.267,2.358-5.267,5.267c0,0.043,0.012,0.083,0.013,0.126c-0.195,0.346-0.518,0.658-0.711,0.932   c-0.302,0.432-0.215,0.492,0.15,0.569c0.455,0.095,0.568-0.098,0.835,0.204c0.027,0.031,0.046,0.027,0.062,0.007   c0.748,1.999,2.659,3.429,4.918,3.429c2.909,0,5.268-2.359,5.268-5.268C78.111,22.252,75.753,19.894,72.844,19.894z"/>
	<polygon fill="#000000" points="70.873,26.992 70.521,28.483 68.98,28.12  "/>
</g>
</svg>