<svg xmlns="http://www.w3.org/2000/svg" xmlns:xlink="http://www.w3.org/1999/xlink" version="1.1" id="Layer_1" x="0px" y="0px" width="50px" height="50px" viewBox="2.5 -5.0 50.0 67.5" enable-background="new 0 0 50 50" xml:space="preserve">
<g>
	<path fill-rule="evenodd" clip-rule="evenodd" fill="#000000" d="M14.354,16.69c1.527,2.109,2.473,4.293,3.055,6.548   c0.729,0.51,1.457,1.021,2.183,1.456c1.237,0.728,2.476,1.308,3.711,1.818c5.893,2.184,12.149,1.602,18.114-3.2   c0.438-2.475,1.165-4.949,2.039-7.351C33.997,18.654,24.32,18.946,14.354,16.69L14.354,16.69z M17.919,26.002   c0.22,0.146,0.438,0.292,0.656,0.364c1.309,0.8,2.689,1.455,4.001,2.037c5.965,2.256,12.295,1.893,18.333-2.255   c-0.218,2.255-0.291,4.585-0.071,6.767c-5.677,4.582-11.643,5.238-17.171,3.129c-1.237-0.51-2.402-1.092-3.565-1.746   c-0.727-0.438-1.455-0.947-2.183-1.455C18.139,30.513,18.211,28.257,17.919,26.002L17.919,26.002z M17.336,37.278   c-1.817,14.406,27.647,14.771,24.3,0.074c-6.401,4.438-13.095,4.873-19.425,2.475c-1.382-0.582-2.763-1.238-4.146-2.111   C17.773,37.571,17.556,37.425,17.336,37.278z"/>
	<g>
		<path fill-rule="evenodd" clip-rule="evenodd" fill="#000000" d="M29.342,10.943c9.457,0,17.023,1.818,17.023,4.001    c0,2.256-7.711,4.074-17.313,4.074c-9.533,0-17.316-1.818-17.316-4.074c0-1.383,3.056-2.618,7.713-3.346    c0.07,0.364,0.144,0.653,0.216,1.02c-3.346,0.507-5.456,1.38-5.456,2.252c0,1.601,6.768,2.984,15.134,2.984    c8.365,0,15.133-1.384,15.133-2.984s-6.402-2.836-14.332-2.981C29.852,11.599,29.632,11.233,29.342,10.943z"/>
		<path fill-rule="evenodd" clip-rule="evenodd" fill="#000000" d="M29.342,11.443c10.237,0,16.523,2.039,16.523,3.501    c0,1.492-6.396,3.574-16.813,3.574c-10.419,0-16.816-2.082-16.816-3.574c0-0.825,2.281-2.069,7.29-2.852l-0.568-0.399    c0.038,0.194,0.076,0.368,0.113,0.536c0.034,0.154,0.069,0.313,0.104,0.485l0.415-0.591c-2.196,0.333-5.881,1.132-5.881,2.746    c0,2.557,9.35,3.484,15.634,3.484s15.633-0.928,15.633-3.484c0-3.12-13.306-3.453-14.823-3.481l0.345,0.146    c-0.123-0.122-0.238-0.271-0.359-0.426c-0.135-0.174-0.274-0.353-0.441-0.52L29.342,11.443z M30.133,12.389    c9.217,0.169,13.842,1.682,13.842,2.481c0,0.876-5.556,2.484-14.633,2.484c-9.078,0-14.634-1.608-14.634-2.484    c0-0.266,1.192-1.176,5.031-1.757l0.517-0.079l-0.101-0.513c-0.036-0.184-0.073-0.349-0.108-0.509    c-0.037-0.169-0.073-0.329-0.108-0.51l-0.092-0.473l-0.476,0.074c-3.038,0.475-8.136,1.604-8.136,3.84    c0,3.003,8.963,4.574,17.816,4.574c8.853,0,17.813-1.571,17.813-4.574c0-2.923-9.028-4.501-17.523-4.501h-1.208l0.854,0.854    c0.123,0.122,0.238,0.27,0.359,0.426c0.135,0.173,0.274,0.352,0.441,0.519l0.142,0.143L30.133,12.389z"/>
	</g>
	<path fill-rule="evenodd" clip-rule="evenodd" fill="#000000" d="M21.484,15.164c-1.092-3.857-1.018-8.225-2.256-11.06   c-0.582-0.289-1.164-0.873-0.944-2.109c-0.511-1.02,0.217-1.455,1.964-1.746c0.435,0.074,0.654,0.291,0.581,0.727   c0.583,0.146,0.874,0.728,0.655,1.672c0.727,2.185,1.818,4.076,3.418,5.678c1.674,1.453,3.348,2.763,4.659,5.236   C26.941,15.164,24.249,15.962,21.484,15.164z"/>
	<g>
		<path fill-rule="evenodd" clip-rule="evenodd" fill="#000000" d="M11.954,46.155c0.144,0.219,0.144,0.438,0.144,0.656    c0,1.525-1.816,2.689-4.146,2.689s-4.22-1.164-4.22-2.689c0-0.219,0.073-0.438,0.147-0.656l0,0c0,1.311,1.816,2.4,4.072,2.4    C10.135,48.556,11.954,47.466,11.954,46.155L11.954,46.155z"/>
		<path fill-rule="evenodd" clip-rule="evenodd" fill="#000000" d="M11.745,46.294c0.103,0.154,0.103,0.314,0.103,0.518    c0,1.369-1.711,2.439-3.896,2.439c-2.226,0-3.97-1.07-3.97-2.439c0-0.178,0.064-0.371,0.134-0.574L3.63,46.155    c0,0.729,0.466,1.404,1.313,1.906c0.81,0.479,1.879,0.744,3.01,0.744c2.345,0,4.252-1.189,4.252-2.65L11.745,46.294z     M11.704,46.155c0,1.166-1.718,2.15-3.752,2.15c-1.043,0-2.021-0.24-2.755-0.674C4.509,47.224,4.13,46.7,4.13,46.155l-0.487-0.08    c-0.079,0.234-0.16,0.477-0.16,0.736c0,1.648,1.963,2.939,4.47,2.939c2.506,0,4.396-1.264,4.396-2.939c0-0.24,0-0.512-0.185-0.793    l-0.459-0.697V46.155z"/>
	</g>
	<g>
		<path fill-rule="evenodd" clip-rule="evenodd" fill="#000000" d="M8.316,31.679c0.073,0.072-1.311,0.217-2.475-0.074    c-1.311-0.289-2.4-0.945-2.4-0.945c-0.437,3.129,2.691,6.402,3.564,8.512c0.51,1.965,0.873,4.584,0.656,6.402    c-0.22,0.291-0.292,0.582-0.146,0.945c0.509,0,0.801,0,1.309,0c0.073-0.363,0.073-0.727-0.217-0.871    c-0.146-2.184,0-4.365,0.364-6.402c0.871-1.893,2.69-5.385,3.272-8.512c0-0.074-0.654,0.436-1.528,0.654    C9.625,31.679,8.316,31.751,8.316,31.679z"/>
		<path fill-rule="evenodd" clip-rule="evenodd" fill="#000000" d="M8.237,31.755l-0.026-0.09c0.007-0.039,0.035-0.061,0.045-0.064    c-0.14,0.063-1.351,0.158-2.388-0.102c-1.279-0.283-2.36-0.926-2.37-0.934l-0.143-0.086l-0.021,0.164    c-0.311,2.217,1.147,4.521,2.32,6.373c0.508,0.805,0.987,1.563,1.251,2.195l-0.007-0.014c0.448,1.723,0.887,4.422,0.654,6.363    l0.019-0.055c-0.256,0.344-0.308,0.678-0.158,1.055l0.027,0.066h0.074h1.309h0.091l0.018-0.088    c0.039-0.191,0.155-0.773-0.277-0.992l0.062,0.09c-0.141-2.102-0.019-4.244,0.362-6.375L9.068,39.29l0.443-0.938    c0.933-1.961,2.343-4.92,2.839-7.6l0.003-0.01v-0.01v-0.064c-0.003-0.004-0.058-0.037-0.058-0.037    c-0.069-0.041-0.12-0.012-0.315,0.098c-0.255,0.146-0.729,0.412-1.291,0.553C9.682,31.55,8.5,31.626,8.365,31.587    c0.021,0.006,0.058,0.039,0.058,0.092L8.237,31.755z M10.743,31.491c0.589-0.146,1.079-0.422,1.344-0.568    c0.072-0.043,0.146-0.082,0.167-0.092c-0.01,0.004-0.044,0.008-0.076-0.016l-0.042-0.082l0.003-0.02    c-0.494,2.65-1.896,5.596-2.824,7.547l-0.442,0.938l-0.006,0.014l-0.001,0.014c-0.385,2.145-0.509,4.309-0.369,6.428l0.006,0.063    l0.056,0.027c0.192,0.098,0.243,0.338,0.161,0.754l0.105-0.086H7.516l0.101,0.068c-0.119-0.303-0.081-0.555,0.134-0.842    l0.018-0.023l0.003-0.027c0.236-1.971-0.206-4.701-0.658-6.443L7.108,39.14l-0.001-0.01c-0.271-0.65-0.757-1.418-1.269-2.23    c-1.152-1.822-2.589-4.088-2.288-6.225l-0.165,0.078c0.045,0.027,1.119,0.666,2.433,0.959c1.028,0.258,2.493,0.209,2.595,0.027    l0.041-0.072c-0.003-0.008-0.063-0.066-0.063-0.066l-0.184-0.186v0.264v0.053c0.004,0.006,0.045,0.039,0.045,0.039    C8.396,31.882,9.784,31.749,10.743,31.491z"/>
	</g>
	<g>
		<path fill-rule="evenodd" clip-rule="evenodd" fill="#000000" d="M7.733,32.005c2.26,0,4.546-0.59,4.546-1.709    c0-1.121-2.286-1.707-4.546-1.707c-2.203,0-4.546,0.598-4.546,1.707S5.53,32.005,7.733,32.005z M3.693,30.296    c0-0.492,1.575-1.203,4.04-1.203c2.504,0,4.039,0.699,4.039,1.203c0,0.502-1.535,1.201-4.039,1.201    C5.269,31.497,3.693,30.784,3.693,30.296z"/>
	</g>
	<g>
		<path fill-rule="evenodd" clip-rule="evenodd" fill="#000000" d="M7.806,28.122c2.022,0,4.108-0.646,4.108-1.731    c0-1.082-2.086-1.731-4.108-1.731c-2.019,0-4.106,0.649-4.106,1.731C3.699,27.476,5.787,28.122,7.806,28.122z M4.205,26.391    c0-0.579,1.538-1.226,3.601-1.226c2.062,0,3.604,0.646,3.604,1.226c0,0.578-1.542,1.226-3.604,1.226    C5.743,27.616,4.205,26.969,4.205,26.391z"/>
	</g>
	<g>
		<path fill-rule="evenodd" clip-rule="evenodd" fill="#000000" d="M7.297,38.808c0.655,0.219,1.238,0.293,1.601-0.072    C8.681,39.755,7.37,39.317,7.297,38.808z"/>
		<path fill-rule="evenodd" clip-rule="evenodd" fill="#000000" d="M7.219,39.046c0.603,0.199,1.359,0.365,1.856-0.135l-0.422-0.227    c-0.062,0.287-0.232,0.428-0.51,0.418c-0.306-0.01-0.581-0.207-0.599-0.33L7.219,39.046z M8.721,38.56    c-0.237,0.238-0.651,0.242-1.345,0.012l-0.384-0.129l0.058,0.4c0.062,0.436,0.606,0.744,1.077,0.76    c0.523,0.018,0.903-0.287,1.016-0.814l0.176-0.83L8.721,38.56z"/>
	</g>
	<g>
		<path fill-rule="evenodd" clip-rule="evenodd" fill="#000000" d="M3.633,26.375c-0.044,0.167-1.075,4.126-0.035,6.44l0.46-0.205    c-0.966-2.154,0.054-6.067,0.064-6.106L3.633,26.375z"/>
	</g>
	<g>
		<path fill-rule="evenodd" clip-rule="evenodd" fill="#000000" d="M11.418,26.431L11.418,26.431    c0.011,0.043,1.117,4.291-0.196,6.523l0.436,0.256c1.42-2.416,0.297-6.728,0.25-6.909L11.418,26.431z"/>
	</g>
</g>
<text x="0.0" y="58.75" font-size="2.5" font-weight="bold" font-family="Helvetica Neue, Helvetica, Arial-Unicode, Arial, Sans-serif" fill="#000000">Created by Mister Pixel</text><text x="0.0" y="61.25" font-size="2.5" font-weight="bold" font-family="Helvetica Neue, Helvetica, Arial-Unicode, Arial, Sans-serif" fill="#000000">from the Noun Project</text></svg>